# xmcd
#
# Track frame offsets:
#	150
#	17417
#	32195
#	56878
#	72491
#	89241
#	112384
#	125479
#	142442
#	154868
#	170696
#	188628
#
# Disc length: 2732 seconds
#
# Revision: 1
# Processed by: cddbd v1.4PL0 Copyright (c) Steve Scherf et al.
# Submitted via: audiograbber 1.81.03
#
DISCID=bf0aaa0c
DTITLE=Dave Sheriff - Sheriff in Nashville
DYEAR=2000
DGENRE=Country
TTITLE0=Line Dance Boogie
TTITLE1=Cryin´Through My Eyes
TTITLE2=We´ve Got Memories
TTITLE3=In The Caribbean
TTITLE4=I Can´t Wait For Payday ~ Payday
TTITLE5=I Couldn´t Find This Words
TTITLE6=Outta Control
TTITLE7=Where Do We Go From Here ~ One Heart
TTITLE8=Hearts and Flowers ~ Hearts and Flowers
TTITLE9=Saying Goodbye 
TTITLE10=I´ve Got The Love ~ Me ´N´ You
TTITLE11=Special Day ~ Special Day Waltz
EXTD=
EXTT0=
EXTT1=
EXTT2=
EXTT3=
EXTT4=
EXTT5=
EXTT6=
EXTT7=
EXTT8=
EXTT9=
EXTT10=
EXTT11=
PLAYORDER=
